<?xml version="1.0" encoding="UTF-8" standalone="no"?>
<!-- Created with Inkscape (http://www.inkscape.org/) -->

<svg
   version="1.0"
   width="500"
   height="500"
   id="svg2211"
   sodipodi:docname="udjat.svg"
   inkscape:export-batch-path="../devices"
   inkscape:export-filename="udjat.png"
   inkscape:export-xdpi="96"
   inkscape:export-ydpi="96"
   inkscape:version="1.5-dev (unknown)"
   xmlns:inkscape="http://www.inkscape.org/namespaces/inkscape"
   xmlns:sodipodi="http://sodipodi.sourceforge.net/DTD/sodipodi-0.dtd"
   xmlns="http://www.w3.org/2000/svg"
   xmlns:svg="http://www.w3.org/2000/svg">
  <sodipodi:namedview
     id="namedview1"
     pagecolor="#ffffff"
     bordercolor="#000000"
     borderopacity="0.25"
     inkscape:showpageshadow="2"
     inkscape:pageopacity="0.0"
     inkscape:pagecheckerboard="true"
     inkscape:deskcolor="#d1d1d1"
     showgrid="false"
     inkscape:zoom="0.95609065"
     inkscape:cx="343.58667"
     inkscape:cy="256.77481"
     inkscape:window-width="1366"
     inkscape:window-height="739"
     inkscape:window-maximized="1"
     inkscape:current-layer="svg2211" />
  <defs
     id="defs2214" />
  <path
     d="m 340.88382,413.71801 c -0.25943,-1.72992 -0.3253,-10.75532 -0.1464,-20.05649 0.41397,-21.52211 2.41985,-31.62982 17.91634,-90.28092 6.91899,-26.18698 7.61217,-44.03805 1.81266,-46.68046 -5.15234,-2.34757 -10.50823,0.61788 -18.9793,10.5085 -26.74772,31.22997 -68.79556,68.60645 -102.05464,90.71669 C 168.34984,405.18022 92.80407,422.24409 48.12043,401.13784 15.181261,385.57909 -1.2257233,345.9649 10.587219,310.51492 c 11.265322,-33.80654 55.111023,-46.35066 80.596493,-23.05836 12.694828,11.60234 9.580348,32.09404 -6.062663,39.8893 -12.641488,6.29951 -28.606352,-6.61707 -24.374425,-19.72046 1.48294,-4.59164 1.238885,-4.74053 -4.660795,-2.84352 -34.536205,11.10488 -27.207516,61.56574 10.938822,75.31779 44.082369,15.89203 113.417039,-6.10071 182.775559,-57.97582 27.50845,-20.5743 60.62224,-54.73373 56.77193,-58.56458 -1.13097,-1.12524 -16.64623,-0.83792 -31.3881,0.58128 -43.30106,4.16859 -94.99504,-4.27641 -155.78024,-25.44915 -7.84119,-2.73126 -19.10744,-6.64049 -25.036106,-8.68717 -12.773738,-4.40972 -36.701474,-10.48214 -53.201739,-13.50163 -6.502436,-1.18991 -12.532837,-2.32199 -13.40089,-2.51574 l -1.578273,-0.35225 0.187378,-15.04521 0.187388,-15.04521 5.911308,-1.34955 c 23.297981,-5.31893 62.425403,-15.12206 94.580864,-23.69662 71.8605,-19.16228 79.50698,-21.06296 94.23313,-23.42348 50.45265,-8.08724 78.04443,-3.03521 183.4668,33.59264 19.82713,6.88871 41.82472,8.61279 61.00805,4.78159 4.41249,-0.88122 9.3936,-1.50276 11.06914,-1.38113 l 3.04644,0.22112 6.4555,14.25666 c 3.55052,7.84117 6.47142,14.43329 6.49091,14.64917 0.0195,0.21584 -4.26767,0.9429 -9.527,1.61567 -40.5805,5.1911 -63.669,14.55584 -76.74733,31.12891 -9.75443,12.36096 -12.30521,17.84172 -14.26073,30.64137 -3.01309,19.72181 1.53784,26.7622 23.53095,36.40283 5.64173,2.47304 5.66248,2.54355 1.06187,3.60935 -17.67797,4.09532 -25.84698,13.68671 -34.58853,40.611 -14.09277,43.4064 -27.84446,68.46452 -39.07694,71.20553 -1.76635,0.43102 -1.8844,0.29479 -2.33217,-2.69124 z M 300.37441,234.27525 c 35.29898,-3.66702 76.13167,-17.1202 100.22705,-33.02187 l 2.6709,-1.76266 -5.22111,-2.62707 c -13.94397,-7.01599 -33.90536,-14.42527 -60.37593,-22.41033 -6.59558,-1.98961 -29.78983,-7.02974 -41.8154,-9.08653 l -2.62159,-0.44839 0.53525,2.98973 c 4.59595,25.67126 -10.84735,42.54683 -37.91597,41.43237 -24.16163,-0.99475 -37.76512,-15.43633 -34.57121,-36.70105 0.59131,-3.93679 0.95017,-7.28271 0.79748,-7.4354 -0.50761,-0.50764 -40.07684,8.78195 -65.99151,15.49267 -22.51813,5.83119 -50.69388,12.71954 -68.679151,16.79056 l -5.911309,1.33803 9.388546,2.91441 c 5.163687,1.60292 22.063054,7.11176 37.554164,12.2419 40.26914,13.33577 62.8486,18.40939 94.5082,21.23605 10.75306,0.96005 65.52615,0.29333 77.42159,-0.94242 z M 29.937877,154.128 c 0.251503,-7.22392 0.846516,-15.63799 1.322267,-18.69796 l 0.864994,-5.56358 12.518055,-0.0199 c 22.644893,-0.0364 33.823809,-2.90094 98.753547,-25.3058 52.07865,-17.970433 104.99315,-25.048536 142.25387,-19.028571 31.77199,5.133196 67.11094,14.318091 107.75951,28.007641 39.90249,13.43829 61.30192,15.59992 85.88776,8.67586 2.18208,-0.61454 15.36375,22.40634 13.81174,24.1213 -1.25296,1.3845 -6.2702,3.44797 -13.46401,5.53745 -7.23676,2.10191 -37.12029,2.75403 -47.12067,1.02826 -7.52571,-1.29873 -36.974,-9.66845 -56.84874,-16.15741 -51.40935,-16.78479 -112.99043,-25.15882 -148.47803,-20.19064 -31.563,4.41874 -43.90184,7.45504 -83.65263,20.58496 -46.732632,15.43605 -87.666346,26.40805 -110.656327,29.66065 l -3.408628,0.48223 z"
     style="fill:#000000;stroke-width:0.695448"
     id="path2223" />
</svg>
